<?xml version="1.0" standalone="no"?>
<!DOCTYPE svg PUBLIC "-//W3C//DTD SVG 20010904//EN"
 "http://www.w3.org/TR/2001/REC-SVG-20010904/DTD/svg10.dtd">
<svg version="1.0" xmlns="http://www.w3.org/2000/svg"
 width="1060.000000pt" height="1060.000000pt" viewBox="0 0 1060.000000 1060.000000"
 preserveAspectRatio="xMidYMid meet">

<g transform="translate(0.000000,1060.000000) scale(0.100000,-0.100000)"
fill="#000000" stroke="none">
<path d="M0 5300 l0 -5300 5300 0 5300 0 0 5300 0 5300 -5300 0 -5300 0 0
-5300z m3256 5060 c20 -48 28 -50 40 -8 11 37 44 52 44 19 0 -10 -9 -60 -21
-110 -19 -84 -23 -91 -45 -91 -17 0 -27 8 -34 24 -14 37 -28 39 -35 6 -6 -26
-11 -31 -33 -28 -24 3 -29 10 -43 68 -9 36 -20 84 -24 108 -6 37 -4 42 12 42
11 0 24 -14 34 -38 l16 -37 16 35 c28 64 50 67 73 10z m268 34 c28 -11 18 -34
-13 -34 -42 0 -61 -9 -61 -30 0 -13 11 -20 41 -25 52 -9 51 -38 -1 -45 -26 -4
-36 -10 -38 -27 -3 -19 2 -22 40 -25 31 -2 44 -8 46 -20 3 -16 -5 -18 -66 -18
l-69 0 -7 38 c-9 56 -7 137 4 166 8 23 15 26 59 26 27 0 56 -3 65 -6z m330
-13 c17 -14 21 -77 7 -99 -4 -7 -28 -19 -52 -26 -41 -12 -44 -16 -47 -50 -3
-28 -8 -36 -23 -36 -18 0 -19 8 -19 108 0 60 3 112 8 116 11 12 109 1 126 -13z
m222 -6 c17 -23 18 -69 3 -96 -8 -15 -7 -32 5 -65 15 -45 15 -45 -7 -42 -13 2
-30 17 -42 40 -30 57 -65 47 -65 -18 0 -17 -6 -24 -20 -24 -19 0 -20 7 -20
108 0 60 3 112 8 116 4 4 33 6 66 4 42 -3 62 -10 72 -23z m220 2 c54 -47 40
-184 -21 -207 -66 -25 -125 26 -125 108 0 103 79 156 146 99z m228 17 c22 -8
20 -34 -2 -34 -34 0 -42 -21 -42 -107 0 -76 -2 -83 -20 -83 -18 0 -20 7 -20
69 0 84 -12 121 -40 121 -22 0 -28 25 -7 33 18 8 113 8 131 1z m200 0 c27 -10
19 -34 -11 -34 -78 -1 -99 -37 -30 -53 26 -6 37 -14 37 -27 0 -14 -9 -20 -37
-22 -30 -2 -39 -8 -41 -25 -3 -20 2 -22 45 -25 37 -2 49 -7 51 -21 3 -16 -4
-18 -70 -15 l-73 3 -3 90 c-4 132 -3 135 62 135 30 0 61 -3 70 -6z m210 -15
c17 -14 26 -30 26 -50 0 -34 -25 -40 -35 -9 -10 31 -38 42 -63 24 -24 -17 -30
-79 -12 -115 15 -27 54 -24 74 6 19 29 36 25 36 -9 0 -48 -62 -76 -115 -51
-26 13 -37 26 -45 54 -13 49 -13 64 6 110 24 60 80 78 128 40z m220 15 c22 -8
20 -34 -2 -34 -34 0 -42 -21 -42 -108 0 -74 -2 -83 -17 -80 -15 3 -18 17 -21
91 -3 83 -4 87 -27 93 -24 6 -32 23 -18 37 8 9 106 9 127 1z m532 -18 c24 -20
28 -33 32 -87 3 -54 1 -68 -17 -90 -40 -51 -117 -45 -146 12 -29 56 -12 153
32 178 30 17 71 12 99 -13z m470 -1 c17 -23 18 -69 3 -94 -9 -14 -8 -29 4 -65
16 -47 16 -47 -5 -44 -14 2 -30 18 -42 41 -27 51 -54 50 -62 -3 -5 -30 -11
-40 -25 -40 -17 0 -19 9 -19 108 0 60 3 112 8 116 4 4 33 6 66 4 42 -3 62 -10
72 -23z m321 10 c7 -21 5 -23 -37 -27 -29 -4 -35 -8 -35 -29 0 -20 6 -25 33
-27 24 -2 32 -8 32 -23 0 -13 -7 -19 -24 -19 -45 0 -56 -10 -56 -51 0 -32 -3
-39 -20 -39 -19 0 -20 7 -20 108 0 60 3 112 7 115 3 4 30 7 60 7 39 0 55 -4
60 -15z m645 -13 c39 -38 40 -141 3 -182 -14 -16 -31 -20 -77 -20 l-58 0 0
103 c0 69 4 107 13 116 18 18 95 8 119 -17z m218 8 c24 -24 27 -60 4 -60 -9 0
-22 7 -29 17 -8 11 -18 14 -31 9 -18 -7 -18 -9 5 -24 62 -44 83 -72 76 -100
-10 -40 -31 -57 -74 -57 -46 0 -83 29 -79 59 4 28 34 33 41 6 3 -14 13 -20 31
-20 37 0 33 27 -6 48 -72 39 -86 75 -43 117 30 31 77 33 105 5z m-1963 -20 c9
-16 23 -30 29 -30 7 0 22 14 34 30 12 17 28 30 36 30 19 0 19 -2 -16 -70 -20
-40 -30 -74 -30 -105 0 -38 -3 -45 -19 -45 -16 0 -21 10 -27 48 -4 26 -20 73
-35 104 -34 68 -34 68 -10 68 11 0 28 -13 38 -30z m453 -60 c5 -83 6 -85 31
-88 32 -4 39 15 39 111 0 60 2 67 20 67 18 0 20 -7 20 -88 0 -97 -12 -125 -56
-136 -66 -17 -104 30 -104 128 0 69 9 98 29 94 13 -3 17 -20 21 -88z m750 26
c0 -84 13 -118 43 -114 17 2 23 10 24 38 9 117 14 140 34 140 17 0 19 -8 19
-79 0 -44 -4 -91 -10 -106 -12 -30 -53 -48 -92 -40 -41 9 -58 50 -58 138 0 76
4 87 27 87 9 0 13 -17 13 -64z m249 30 c28 -44 51 -54 51 -22 0 34 10 56 25
56 8 0 14 -25 18 -76 11 -145 -12 -180 -67 -103 -30 43 -43 42 -48 -6 -2 -18
-10 -31 -19 -33 -14 -2 -18 10 -24 67 -14 137 17 193 64 117z m-2411 -2106
c100 -13 229 -55 320 -106 151 -84 249 -165 566 -469 114 -109 205 -189 215
-188 9 1 11 0 4 -3 -9 -4 -10 -10 -1 -24 10 -15 15 -17 28 -7 13 10 13 10 2
-5 -12 -15 1 -31 110 -136 262 -254 359 -320 530 -364 348 -88 668 200 619
555 -31 226 -181 383 -396 417 -223 36 -458 -74 -731 -340 -36 -36 -63 -53
-50 -32 2 4 0 14 -6 22 -8 12 -9 12 -4 -2 3 -10 1 -20 -4 -23 -6 -4 -10 -1
-10 6 0 8 -4 8 -15 -1 -9 -7 -18 -10 -21 -7 -3 3 4 11 16 17 16 9 21 18 17 36
-3 17 0 24 11 24 14 0 14 2 -1 13 -13 10 -16 33 -18 117 -2 117 -5 140 -21
140 -6 0 -6 -6 2 -15 16 -19 -4 -47 -27 -38 -11 5 -12 7 -2 14 7 4 17 5 21 3
10 -6 11 10 1 19 -3 4 -13 1 -22 -5 -10 -8 -8 -4 3 10 14 16 25 20 40 16 19
-6 19 -5 7 10 -12 14 -12 16 4 10 12 -5 16 -4 12 3 -8 13 65 77 163 145 480
333 1071 225 1295 -237 52 -106 73 -183 84 -306 15 -165 -11 -306 -83 -454
-81 -164 -202 -284 -371 -370 -128 -65 -222 -87 -375 -88 -151 -2 -234 16
-366 78 -198 92 -281 162 -754 630 -480 475 -582 555 -791 626 -81 28 -112 33
-224 37 -108 3 -145 1 -217 -17 -153 -36 -275 -102 -391 -211 -37 -34 -67 -59
-67 -56 0 4 13 35 29 70 132 292 417 477 761 495 14 0 63 -4 108 -9z m1167
-430 c-3 -5 -12 -10 -18 -10 -7 0 -6 4 3 10 19 12 23 12 15 0z m-69 -22 c3 -4
-1 -5 -10 -4 -8 1 -18 5 -22 8 -3 4 1 5 10 4 8 -1 18 -5 22 -8z m114 -267 c0
-3 -17 -19 -38 -35 -36 -29 -36 -29 -13 -3 24 26 17 39 -7 15 -7 -7 -12 -8
-12 -2 0 6 10 15 22 21 25 11 48 13 48 4z m175 -1431 c496 -58 879 -220 925
-392 16 -59 8 -1517 -9 -1583 -71 -281 -179 -529 -333 -760 -149 -223 -315
-397 -515 -538 -132 -92 -348 -194 -492 -232 -56 -14 -66 -14 -122 0 -86 23
-250 89 -339 138 -411 224 -757 655 -934 1165 -86 248 -86 252 -86 1074 0 594
2 724 14 752 49 117 242 229 521 301 196 51 325 71 645 99 125 11 544 -3 725
-24z m-3925 -5012 c60 -18 111 -48 161 -95 27 -25 49 -49 49 -53 0 -4 -32 -33
-72 -63 l-72 -55 -38 33 c-104 88 -267 64 -333 -49 -68 -115 -25 -264 90 -317
80 -37 198 -17 254 44 l24 26 71 -55 c39 -31 73 -60 75 -66 6 -16 -82 -92
-139 -119 -127 -61 -248 -62 -367 -4 -166 80 -253 244 -231 435 27 242 288
409 528 338z m3049 -4 c191 -61 315 -265 281 -461 -31 -182 -169 -318 -349
-345 -389 -58 -631 410 -360 697 109 115 277 158 428 109z m2081 4 c60 -18
111 -48 161 -95 l49 -46 0 77 0 76 295 0 296 0 -3 -92 -3 -93 -92 2 -93 2 0
-319 0 -320 -100 0 -100 0 0 314 c0 257 -2 315 -14 319 -7 3 -50 6 -95 6 -45
0 -85 3 -90 5 -4 3 -38 -20 -75 -49 l-68 -55 -40 34 c-105 90 -266 66 -334
-50 -67 -113 -23 -262 91 -315 80 -37 198 -17 254 44 l24 26 71 -55 c39 -31
73 -60 75 -66 6 -16 -88 -96 -143 -122 -119 -56 -260 -57 -369 -1 -72 37 -152
119 -187 190 -53 107 -55 253 -6 361 33 71 128 167 199 200 89 40 206 49 297
22z m1360 0 c113 -34 214 -121 263 -227 39 -83 48 -197 22 -286 -59 -204 -258
-330 -467 -296 -90 15 -159 50 -225 117 -204 203 -146 545 113 666 95 44 201
54 294 26z m-7130 -398 l0 -410 -100 0 -100 0 0 403 c0 222 3 407 7 410 3 4
48 7 100 7 l93 0 0 -410z m1355 386 c154 -67 204 -269 97 -388 -59 -66 -118
-88 -234 -88 l-98 0 0 -160 0 -160 -100 0 -100 0 0 411 0 411 198 -4 c159 -3
205 -7 237 -22z m916 2 c200 -87 209 -364 14 -454 -42 -20 -66 -24 -153 -24
l-104 0 4 -160 3 -160 -97 0 -98 0 0 411 0 411 198 -4 c150 -3 206 -8 233 -20z
m649 -4 c130 -59 183 -218 119 -351 -19 -39 -77 -94 -111 -105 -7 -3 36 -74
94 -159 57 -85 108 -160 112 -166 6 -10 -19 -13 -107 -13 l-115 0 -97 156
c-81 130 -101 155 -119 152 -20 -3 -21 -7 -21 -156 l0 -152 -97 0 -98 0 0 411
0 411 198 -4 c171 -4 203 -7 242 -24z m1672 8 c3 -9 6 -50 7 -90 l2 -72 -88
-1 c-48 -1 -94 -1 -100 0 -10 2 -13 -68 -13 -319 l0 -320 -100 0 -100 0 -2
317 -3 318 -65 2 c-36 1 -80 2 -97 2 l-33 1 0 83 c0 46 3 87 7 90 3 4 136 7
294 7 265 0 287 -1 291 -18z m578 -72 l0 -89 -157 -3 -158 -3 -3 -67 -3 -68
134 0 134 0 7 -46 c3 -26 6 -66 6 -90 l0 -43 -137 -3 -138 -3 0 -65 0 -65 158
-3 157 -3 0 -89 0 -90 -260 0 -260 0 0 403 c0 222 3 407 7 410 3 4 120 7 260
7 l253 0 0 -90z m2795 66 c84 -36 155 -141 155 -230 0 -85 -52 -181 -116 -214
l-36 -18 104 -155 c58 -85 108 -160 112 -166 6 -10 -18 -13 -107 -13 l-115 0
-97 155 c-67 108 -102 155 -115 155 -25 0 -28 -12 -28 -130 0 -58 0 -122 -1
-142 l-1 -38 -95 0 -95 0 0 411 0 411 198 -4 c159 -3 205 -7 237 -22z"/>
<path d="M3772 10328 c2 -15 10 -23 23 -23 13 0 21 8 23 23 3 18 -1 22 -23 22
-22 0 -26 -4 -23 -22z"/>
<path d="M3982 10333 c2 -11 14 -19 31 -21 23 -3 28 0 25 15 -2 11 -14 19 -31
21 -23 3 -28 0 -25 -15z"/>
<path d="M4200 10321 c-13 -33 -6 -83 15 -101 8 -6 24 -10 37 -8 26 4 42 57
29 104 -6 23 -14 30 -38 32 -25 3 -32 -2 -43 -27z"/>
<path d="M5590 10320 c-15 -36 -6 -96 16 -104 37 -14 53 -6 64 33 15 56 -3
101 -40 101 -21 0 -30 -7 -40 -30z"/>
<path d="M6062 10333 c2 -11 14 -19 31 -21 22 -3 27 1 27 17 0 17 -6 21 -31
21 -24 0 -30 -4 -27 -17z"/>
<path d="M7036 10324 c-4 -14 -4 -46 0 -71 5 -37 10 -44 27 -41 57 8 62 130 6
136 -22 3 -28 -2 -33 -24z"/>
<path d="M5636 7909 c3 -5 0 -9 -7 -9 -7 0 -9 -3 -6 -6 4 -4 13 -2 20 4 8 7
16 11 18 9 2 -1 3 0 1 2 -1 3 -9 6 -17 7 -8 1 -13 -2 -9 -7z"/>
<path d="M5637 7613 c-4 -3 -7 -11 -7 -17 0 -6 5 -5 12 2 6 6 9 14 7 17 -3 3
-9 2 -12 -2z"/>
<path d="M5645 7580 c-3 -5 -1 -10 4 -10 6 0 11 5 11 10 0 6 -2 10 -4 10 -3 0
-8 -4 -11 -10z"/>
<path d="M5105 5973 c-234 -14 -488 -52 -655 -99 -162 -45 -311 -114 -372
-172 l-28 -26 0 -707 c0 -795 -1 -784 74 -1006 137 -407 415 -792 733 -1013
67 -47 275 -160 294 -160 5 0 9 110 9 245 l0 245 155 0 155 0 0 -245 c0 -189
3 -245 13 -245 24 0 229 110 305 164 342 243 626 651 749 1076 53 182 53 181
53 939 l0 707 -27 26 c-62 57 -202 123 -361 169 -84 24 -287 65 -387 78 -188
25 -516 36 -710 24z m-271 -582 c98 -34 188 -108 279 -228 34 -46 42 -64 42
-99 0 -78 -83 -134 -156 -104 -20 9 -50 42 -91 102 -102 149 -183 203 -303
202 -91 -1 -170 -25 -275 -82 -47 -26 -89 -49 -94 -51 -19 -8 48 77 106 137
67 68 167 125 248 142 66 13 176 5 244 -19z m1225 14 c89 -21 170 -67 235
-134 56 -57 106 -119 106 -132 0 -4 -40 15 -88 41 -102 57 -190 83 -282 83
-117 1 -205 -59 -303 -206 -61 -92 -93 -114 -151 -103 -45 9 -96 65 -96 107 0
39 11 60 79 142 147 179 313 246 500 202z m-1369 -469 c77 -14 185 -61 210
-91 13 -16 11 -21 -20 -46 -73 -61 -224 -97 -336 -79 -36 6 -88 19 -116 30
-56 21 -128 66 -128 79 0 14 71 58 129 81 45 17 118 33 176 38 6 1 44 -5 85
-12z m1464 -8 c88 -22 195 -86 181 -108 -21 -33 -144 -85 -241 -100 -110 -18
-262 18 -334 79 -34 28 -34 29 -17 49 27 30 148 81 213 91 63 9 134 5 198 -11z
m-1687 -908 l216 -180 161 0 161 0 120 120 120 120 75 0 75 0 120 -120 120
-120 160 0 161 0 114 96 c63 52 135 112 160 132 25 20 71 59 103 86 31 27 59
47 61 45 2 -2 -78 -134 -178 -294 l-182 -290 -279 -3 -279 -2 -78 77 -78 78
-78 -78 -77 -77 -282 0 c-241 0 -282 2 -287 15 -3 8 -43 75 -89 148 -46 72
-119 187 -161 255 -42 68 -84 134 -92 148 -9 13 -13 24 -9 24 4 0 104 -81 222
-180z"/>
<path d="M1682 1059 c-97 -19 -215 -108 -260 -195 -71 -139 -46 -310 63 -432
24 -26 65 -60 92 -74 60 -33 166 -52 238 -43 64 8 159 53 198 93 l28 29 -42
32 c-24 17 -47 31 -52 31 -4 0 -23 -11 -40 -24 -67 -50 -180 -59 -259 -22
-112 53 -170 187 -134 310 30 103 117 173 226 183 68 7 121 -8 171 -48 l37
-28 47 35 c44 34 46 37 29 55 -32 36 -116 82 -172 95 -63 15 -106 16 -170 3z"/>
<path d="M4723 1060 c-114 -24 -213 -101 -265 -208 -30 -61 -33 -74 -33 -162
0 -82 4 -103 27 -152 76 -162 241 -249 415 -218 85 14 151 50 207 110 58 62
83 114 98 199 25 146 -29 276 -151 366 -27 19 -68 42 -91 50 -54 19 -154 26
-207 15z m171 -130 c93 -35 166 -140 166 -240 0 -105 -80 -215 -179 -244 -68
-20 -94 -20 -160 0 -182 54 -240 294 -103 427 74 73 177 94 276 57z"/>
<path d="M4740 903 c-78 -16 -160 -122 -160 -207 0 -92 49 -173 124 -207 53
-24 139 -24 192 0 151 69 166 293 26 386 -39 25 -129 39 -182 28z"/>
<path d="M6812 1059 c-96 -19 -203 -98 -255 -189 -84 -148 -48 -344 86 -466
69 -62 141 -87 252 -88 82 -1 96 2 155 31 36 18 78 45 93 61 l27 28 -39 32
c-48 38 -53 39 -94 8 -70 -52 -182 -60 -263 -18 -80 41 -144 144 -144 232 0
86 65 192 142 231 84 43 200 34 269 -21 l37 -29 47 35 c44 34 46 37 29 55 -32
36 -116 82 -172 95 -63 15 -106 16 -170 3z"/>
<path d="M7260 1005 l0 -55 98 0 97 0 -3 -315 -3 -315 65 0 66 0 0 315 0 314
98 3 97 3 3 53 3 52 -260 0 -261 0 0 -55z"/>
<path d="M8164 1056 c-102 -25 -203 -105 -250 -197 -48 -96 -49 -228 -1 -332
34 -75 123 -160 195 -188 71 -28 214 -31 280 -6 98 37 185 125 223 226 30 81
24 215 -13 292 -50 100 -149 180 -257 205 -68 16 -109 16 -177 0z m168 -120
c58 -17 118 -65 149 -119 20 -35 24 -55 24 -127 0 -74 -3 -91 -27 -131 -57
-98 -166 -143 -282 -119 -118 24 -196 124 -196 249 0 81 23 134 80 190 66 64
159 85 252 57z"/>
<path d="M8176 895 c-111 -39 -171 -182 -123 -296 18 -43 77 -100 120 -116 41
-15 123 -15 165 0 55 20 110 83 128 145 25 83 7 152 -55 213 -66 66 -148 85
-235 54z"/>
<path d="M1080 690 l0 -371 60 3 61 3 1 365 2 365 -62 3 -62 3 0 -371z"/>
<path d="M2190 691 l0 -371 65 0 65 0 0 159 0 159 129 3 c125 4 131 5 172 34
105 74 119 225 31 318 -54 57 -71 61 -274 65 l-188 4 0 -371z m308 260 c52 -1
92 -47 92 -105 0 -85 -52 -115 -197 -116 l-73 0 0 109 0 110 48 4 c26 2 58 2
72 1 14 -1 40 -3 58 -3z"/>
<path d="M2360 844 l0 -76 81 4 c70 3 83 6 100 27 26 32 24 63 -6 91 -21 20
-38 24 -100 27 l-75 3 0 -76z"/>
<path d="M3110 690 l0 -370 65 0 65 0 0 159 0 159 128 4 c118 3 130 5 165 30
56 38 88 90 94 153 10 96 -54 193 -146 224 -20 6 -103 11 -202 11 l-169 0 0
-370z m346 250 c30 -16 54 -63 54 -103 0 -26 -8 -43 -29 -65 -33 -33 -71 -42
-173 -42 l-68 0 0 109 0 110 28 3 c53 6 167 -1 188 -12z"/>
<path d="M3275 898 c-3 -13 -4 -45 -2 -73 l3 -50 67 -3 c78 -3 126 16 128 51
4 69 -18 87 -114 93 -73 5 -77 4 -82 -18z"/>
<path d="M3750 691 l0 -371 65 0 65 0 0 155 0 155 49 0 49 0 97 -155 97 -155
69 0 c45 0 68 4 64 10 -3 6 -51 76 -106 156 -55 81 -99 147 -97 148 2 1 22 10
45 20 77 34 123 105 123 189 0 63 -44 144 -98 182 l-44 30 -189 3 -189 4 0
-371z m366 225 c40 -40 46 -92 14 -143 -24 -39 -67 -53 -172 -53 l-78 0 0 115
0 115 101 0 101 0 34 -34z"/>
<path d="M3916 901 c-2 -9 -4 -44 -4 -78 l-1 -63 77 0 c82 1 105 10 120 50 13
35 3 69 -26 88 -35 23 -160 25 -166 3z"/>
<path d="M5280 1005 l0 -55 100 0 100 0 0 -315 0 -315 60 0 60 0 0 315 0 315
100 0 100 0 0 55 0 55 -260 0 -260 0 0 -55z"/>
<path d="M5930 690 l0 -370 220 0 220 0 0 50 0 49 -157 3 -158 3 -1 95 c0 52
2 101 4 108 3 9 40 12 138 12 l134 0 0 50 0 50 -139 0 -140 0 2 105 c2 85 5
105 17 106 8 0 79 0 158 0 l142 -1 0 55 0 55 -220 0 -220 0 0 -370z"/>
<path d="M8800 691 l0 -371 65 0 65 0 0 155 0 155 49 0 49 0 97 -155 97 -155
70 0 c44 0 67 4 63 10 -3 6 -51 76 -106 156 -55 81 -99 147 -97 148 2 1 22 10
45 20 77 34 123 105 123 189 0 63 -44 144 -98 182 l-44 30 -189 3 -189 4 0
-371z m366 225 c40 -40 46 -92 14 -143 -24 -39 -67 -53 -172 -53 l-78 0 0 115
0 115 101 0 101 0 34 -34z"/>
<path d="M8967 911 c-2 -3 -4 -39 -6 -78 l-3 -73 79 0 c83 1 106 10 121 50 13
34 3 69 -26 88 -24 16 -159 27 -165 13z"/>
</g>
</svg>
