<svg width="23" height="23" viewBox="0 0 23 23" fill="none" xmlns="http://www.w3.org/2000/svg">
<g id="wallet_6251407 2" clip-path="url(#clip0_988_1149)">
<g id="Group">
<path id="Vector" d="M22.5508 11.7277H21.6469V8.5684C21.6469 7.57459 20.8383 6.76604 19.8445 6.76604H18.9207C18.8839 6.67252 18.3307 5.3404 17.7012 3.81962C17.3208 2.90146 16.2644 2.46383 15.3462 2.84427L14.9638 3.00267L14.1508 1.73345C13.6142 0.894665 12.5002 0.649437 11.6612 1.18711C2.70259 6.92668 3.16776 6.60055 2.9758 6.76604H1.80236C0.808549 6.76604 0 7.57459 0 8.5684V20.2958C0 21.2896 0.808549 22.0981 1.80236 22.0981H19.8445C20.8383 22.0981 21.6469 21.2896 21.6469 20.2958V17.1366H22.5508C22.7988 17.1366 23 16.9355 23 16.6874V12.1769C23 11.9288 22.7988 11.7277 22.5508 11.7277ZM15.69 3.6743C16.1504 3.48351 16.6803 3.703 16.8711 4.16349L17.9493 6.76609H8.22686C8.54463 6.63438 15.3811 3.80228 15.69 3.6743ZM12.1456 1.94368C12.5661 1.67433 13.1246 1.79647 13.3941 2.21779L14.1206 3.35198L5.87938 6.76604H4.60782L12.1456 1.94368ZM20.7484 20.2958C20.7484 20.7942 20.3429 21.1997 19.8445 21.1997H1.80236C1.3039 21.1997 0.898438 20.7942 0.898438 20.2958V8.5684C0.898438 8.06995 1.3039 7.66448 1.80236 7.66448H19.8445C20.3429 7.66448 20.7484 8.06995 20.7484 8.5684V11.7277H17.58C16.0938 11.7277 14.8847 12.9367 14.8847 14.4229V14.4413C14.8847 15.9275 16.0938 17.1366 17.58 17.1366H20.7484V20.2958ZM22.1016 16.2381C21.5457 16.2381 18.1558 16.2381 17.58 16.2381C16.5892 16.2381 15.7832 15.4321 15.7832 14.4413V14.4229C15.7832 13.4321 16.5892 12.6261 17.58 12.6261H22.1016V16.2381Z" fill="black"/>
<path id="Vector_2" d="M17.1399 14.4321C17.1399 14.6802 17.341 14.8813 17.5891 14.8813H18.0402C18.2882 14.8813 18.4894 14.6802 18.4894 14.4321C18.4894 14.1841 18.2882 13.9829 18.0402 13.9829H17.5891C17.341 13.9829 17.1399 14.1841 17.1399 14.4321Z" fill="black"/>
</g>
</g>
<defs>
<clipPath id="clip0_988_1149">
<rect width="23" height="23" fill="white"/>
</clipPath>
</defs>
</svg>
